<svg xmlns="http://www.w3.org/2000/svg" x="0px" y="0px"
width="48" height="48"
viewBox="0 0 172 172"
style=" fill:#000000;"><g fill="none" fill-rule="nonzero" stroke="none" stroke-width="1" stroke-linecap="butt" stroke-linejoin="miter" stroke-miterlimit="10" stroke-dasharray="" stroke-dashoffset="0" font-family="none" font-weight="none" font-size="none" text-anchor="none" style="mix-blend-mode: normal"><path d="M0,172v-172h172v172z" fill="none"></path><g fill="#2196f3"><path d="M146.83425,82.02967c-0.5375,12.43775 -3.612,22.30983 -9.21992,29.61983c-5.60792,7.31 -13.15442,10.96142 -22.62158,10.96142c-4.18175,0 -7.78658,-0.89942 -10.82525,-2.69467c-3.03508,-1.78808 -5.32483,-4.37167 -6.88358,-7.7185c-4.85542,6.79758 -11.19792,10.20175 -19.01675,10.20175c-7.09142,0 -12.58108,-2.99208 -16.46183,-8.9655c-3.88433,-5.977 -5.34633,-13.86392 -4.37525,-23.67508c0.87433,-8.01233 2.90608,-15.14675 6.08808,-21.38892c3.17842,-6.235 7.19892,-11.03667 12.05433,-14.38708c4.85542,-3.35042 10.10142,-5.02742 15.738,-5.02742c6.9445,0 12.87133,1.60533 17.77692,4.816l4.59025,3.12825l-3.71233,42.10775c-0.48733,3.83417 -0.0645,6.77608 1.27567,8.81142c1.333,2.0425 3.45792,3.06017 6.37117,3.06017c4.46842,0 8.20942,-2.61225 11.21942,-7.83675c3.01,-5.21733 4.66192,-12.04717 4.95575,-20.50742c0.82417,-16.95275 -2.58358,-29.98533 -10.23042,-39.08342c-7.654,-9.10525 -18.9845,-13.66325 -33.98792,-13.66325c-9.37758,0 -17.73033,2.37933 -25.06183,7.14158c-7.33508,4.76225 -13.11858,11.52758 -17.33975,20.296c-4.22833,8.76125 -6.61125,18.80175 -7.14517,30.1215c-0.774,17.19283 2.67317,30.49058 10.34867,39.88608c7.67192,9.39908 19.16008,14.09683 34.46092,14.09683c4.03125,0 8.256,-0.44433 12.67783,-1.34733c4.41467,-0.89942 8.2345,-2.10342 11.43442,-3.60483l2.76992,11.21583c-2.96342,1.94575 -6.95525,3.51525 -11.98983,4.70492c-5.02025,1.19683 -10.08708,1.7845 -15.18617,1.7845c-12.82475,0 -23.75033,-2.59075 -32.78392,-7.75433c-9.03358,-5.17433 -15.77383,-12.79608 -20.21717,-22.87958c-4.44333,-10.07992 -6.37475,-22.11992 -5.79425,-36.0985c0.5805,-13.41242 3.64067,-25.43092 9.18408,-36.06267c5.53267,-10.63892 13.072,-18.86267 22.62158,-24.65692c9.53883,-5.80858 20.31033,-8.71467 32.30733,-8.71467c12.18692,0 22.6825,2.61225 31.47242,7.83317c8.78633,5.21733 15.36892,12.685 19.74417,22.39942c4.37525,9.71442 6.29233,21.0055 5.762,33.88042zM73.60883,89.75175c-0.5375,6.41058 0.02508,11.28033 1.677,14.60567c1.64475,3.32892 4.3215,4.99875 8.01233,4.99875c2.37933,0 4.63683,-1.04633 6.77608,-3.139c2.13567,-2.08908 3.913,-5.0955 5.31767,-9.03358l3.06017,-34.46092c-1.88842,-0.63425 -3.83775,-0.946 -5.8265,-0.946c-5.58642,0 -9.92225,2.37933 -13.00392,7.138c-3.08883,4.75867 -5.09192,11.71033 -6.01283,20.83708z"></path></g></g></svg>