<svg xmlns="http://www.w3.org/2000/svg" x="0px" y="0px"
width="48" height="48"
viewBox="0 0 172 172"
style=" fill:#000000;"><g fill="none" fill-rule="nonzero" stroke="none" stroke-width="1" stroke-linecap="butt" stroke-linejoin="miter" stroke-miterlimit="10" stroke-dasharray="" stroke-dashoffset="0" font-family="none" font-weight="none" font-size="none" text-anchor="none" style="mix-blend-mode: normal"><path d="M0,172v-172h172v172z" fill="none"></path><g><path d="M139.75,93.16667c0,31.53333 -25.8,57.33333 -57.33333,57.33333c-31.53333,0 -57.33333,-25.8 -57.33333,-57.33333c0,-31.53333 25.8,-57.33333 57.33333,-57.33333c31.53333,0 57.33333,25.8 57.33333,57.33333z" fill="#90caf9"></path><path d="M82.41667,154.08333c-17.91667,0 -32.25,-26.875 -32.25,-60.91667c0,-34.04167 14.33333,-60.91667 32.25,-60.91667c17.91667,0 32.25,26.875 32.25,60.91667c0,34.04167 -14.33333,60.91667 -32.25,60.91667zM82.41667,39.41667c-13.61667,0 -25.08333,24.725 -25.08333,53.75c0,29.025 11.46667,53.75 25.08333,53.75c13.61667,0 25.08333,-24.725 25.08333,-53.75c0,-29.025 -11.46667,-53.75 -25.08333,-53.75z" fill="#1e88e5"></path><path d="M130.075,68.08333h-95.31667c-2.15,0 -3.58333,-1.43333 -3.58333,-3.58333c0,-2.15 1.43333,-3.58333 3.58333,-3.58333h95.675c2.15,0 3.58333,1.43333 3.58333,3.58333c0,2.15 -1.79167,3.58333 -3.94167,3.58333zM130.075,125.41667h-95.31667c-2.15,0 -3.58333,-1.43333 -3.58333,-3.58333c0,-2.15 1.43333,-3.58333 3.58333,-3.58333h95.675c2.15,0 3.58333,1.43333 3.58333,3.58333c0,2.15 -1.79167,3.58333 -3.94167,3.58333zM25.08333,89.58333h114.66667v7.16667h-114.66667z" fill="#1e88e5"></path><path d="M78.83333,35.83333h7.16667v114.66667h-7.16667z" fill="#1e88e5"></path><path d="M135.45,72.025c-5.375,8.24167 -10.03333,14.69167 -10.03333,14.69167c0,0 -25.08333,-32.96667 -25.08333,-46.94167c0,-0.35833 0,-0.71667 0,-0.71667c-4.65833,-1.43333 -9.31667,-2.50833 -14.33333,-2.86667c0,1.075 -0.35833,2.50833 -0.35833,3.58333c0,16.84167 19.70833,44.43333 27.95,55.54167l11.46667,15.05l11.46667,-15.05c0.71667,-1.075 1.79167,-2.50833 2.86667,-3.94167c0,-6.80833 -1.43333,-13.61667 -3.94167,-19.35z" fill="#1e88e5"></path><path d="M125.41667,50.16667v0c-5.375,0 -9.675,-3.58333 -10.75,-8.24167c-9.31667,-6.09167 -20.425,-9.675 -32.25,-9.675c-33.68333,0 -60.91667,27.23333 -60.91667,60.91667c0,33.68333 27.23333,60.91667 60.91667,60.91667c33.68333,0 60.91667,-27.23333 60.91667,-60.91667c0,-16.84167 -6.80833,-31.89167 -17.91667,-43zM82.41667,146.91667c-29.74167,0 -53.75,-24.00833 -53.75,-53.75c0,-29.74167 24.00833,-53.75 53.75,-53.75c29.74167,0 53.75,24.00833 53.75,53.75c0,29.74167 -24.00833,53.75 -53.75,53.75z" fill="#1e88e5"></path><path d="M125.41667,14.69167c-13.975,0 -25.08333,11.10833 -25.08333,25.08333c0,13.975 25.08333,46.58333 25.08333,46.58333c0,0 25.08333,-32.60833 25.08333,-46.58333c0,-13.975 -11.10833,-25.08333 -25.08333,-25.08333zM125.41667,50.16667c-6.09167,0 -10.75,-4.65833 -10.75,-10.75c0,-6.09167 4.65833,-10.75 10.75,-10.75c6.09167,0 10.75,4.65833 10.75,10.75c0,6.09167 -4.65833,10.75 -10.75,10.75z" fill="#ff3d00"></path></g></g></svg>