<svg xmlns="http://www.w3.org/2000/svg" x="0px" y="0px"
width="48" height="48"
viewBox="0 0 172 172"
style=" fill:#000000;"><g fill="none" fill-rule="nonzero" stroke="none" stroke-width="1" stroke-linecap="butt" stroke-linejoin="miter" stroke-miterlimit="10" stroke-dasharray="" stroke-dashoffset="0" font-family="none" font-weight="none" font-size="none" text-anchor="none" style="mix-blend-mode: normal"><path d="M0,172v-172h172v172z" fill="none"></path><g><path d="M154.08333,86c0,37.625 -30.45833,68.08333 -68.08333,68.08333c-37.625,0 -68.08333,-30.45833 -68.08333,-68.08333c0,-37.625 30.45833,-68.08333 68.08333,-68.08333c37.625,0 68.08333,30.45833 68.08333,68.08333z" fill="#bbdefb"></path><path d="M86,14.33333l-0.58767,0.02867c-39.14792,0.3225 -71.079,32.41842 -71.079,71.638c0,39.41667 32.25,71.66667 71.66667,71.66667c8.82575,0 17.25733,-1.69492 25.08333,-4.64758v-7.62892c-1.31867,0.56258 -2.6875,1.01767 -4.04558,1.49425c1.40825,-1.58742 2.76992,-3.27875 4.04558,-5.16717v-15.64125c-5.23525,13.01108 -12.9,22.02317 -21.5,24.00475v-28.24742h21.5v-7.16667h-21.5v-25.08333h22.71475c1.20758,-2.54417 3.268,-4.63325 5.891,-5.89817c0.14692,-0.07167 0.2795,-0.16125 0.43,-0.22575c1.67342,-0.73458 3.45433,-1.07142 5.21733,-1.04275c0.05375,0 0.1075,0 0.15767,0c0.44433,0.01433 0.88867,0.06808 1.32942,0.129c2.50833,0.344 4.91275,1.42617 6.85133,3.23217l4.07425,3.8055h14.06817c-0.22217,3.95242 -0.78833,7.80808 -1.69492,11.5455l5.9555,5.55775c1.99233,-6.5575 3.08883,-13.49842 3.08883,-20.68658c0,-39.41667 -32.25,-71.66667 -71.66667,-71.66667zM64.96225,25.11558c-5.50042,6.19917 -10.02617,14.80633 -13.21175,25.05108h-19.19233c7.74717,-11.50608 19.08125,-20.41067 32.40408,-25.05108zM28.41583,57.29033c0.08958,0.00358 0.15767,0.043 0.25083,0.043h21.13808c-1.79883,7.71492 -2.89175,16.15367 -3.12467,25.08333h-24.99733c0.50167,-8.99058 2.89533,-17.4795 6.73308,-25.12633zM28.34417,114.67025c-3.827,-7.64325 -6.16333,-16.12142 -6.66142,-25.08692h24.99733c0.23292,8.91533 1.27925,17.372 3.07808,25.08333h-6.75817h-14.33333c-0.01433,0 -0.13617,0 -0.3225,0.00358zM32.45425,121.83333h19.26758c3.19275,10.26625 7.74,18.84833 13.244,25.05108c-13.34433,-4.644 -24.75008,-13.51275 -32.51158,-25.05108zM82.41667,150.06642c-9.51375,-2.18942 -17.89158,-12.943 -23.09458,-28.23308h23.09458zM82.41667,114.66667h-21.5h-3.6765c-1.94933,-7.66117 -3.14258,-16.15008 -3.397,-25.08333h28.5735zM82.41667,82.41667h-28.5735c0.258,-8.94042 1.4835,-17.415 3.42925,-25.08333h25.14425zM82.41667,50.16667h-23.02292c5.19225,-15.26858 13.5235,-26.02575 23.02292,-28.21875zM89.58333,21.94792c9.49942,2.18942 17.83067,12.95017 23.02292,28.21875h-23.02292zM89.58333,82.41667v-25.08333h25.14425c1.94575,7.66833 3.17125,16.14292 3.42925,25.08333zM107.03775,25.11558c13.32283,4.64042 24.6605,13.54858 32.40767,25.05108h-19.19233c-3.18917,-10.24475 -7.7185,-18.8555 -13.21533,-25.05108zM125.31992,82.41667c-0.23292,-8.92967 -1.32583,-17.36842 -3.12467,-25.08333h21.13808c0.09317,0 0.16125,-0.03942 0.25083,-0.043c3.83775,7.65042 6.23142,16.13575 6.73308,25.12633z" fill="#42a5f5"></path><path d="M112.29808,89.58333c-0.78117,1.64833 -1.21475,3.47583 -1.21475,5.375v19.70833h3.6765c1.94933,-7.66117 3.14258,-16.15008 3.397,-25.08333zM125.31992,89.58333c-0.23292,8.91533 -1.27925,17.372 -3.07808,25.08333h3.17483v-15.59108l16.70192,15.59108h1.21475c0.11108,0 0.1935,0.04658 0.301,0.05375c2.15358,-4.28567 3.83058,-8.83292 4.988,-13.588l-12.37325,-11.54908zM120.27817,121.83333c-2.37575,7.63967 -5.4825,14.38708 -9.19483,19.88392v3.67292c5.16717,-2.20017 9.9545,-5.10267 14.33333,-8.50683v-15.05zM111.08333,121.83333v4.24267c0.55542,-1.37958 1.0965,-2.77708 1.59458,-4.24267z" fill="#c5e3fc"></path><path d="M148.62233,101.12883c-1.15742,4.75508 -2.83442,9.30233 -4.988,13.588c-0.15408,0.31175 -0.29383,0.63067 -0.45508,0.93883l3.60125,3.36117l1.82033,1.6985c2.46533,-4.41467 4.47917,-9.10883 5.977,-14.02875zM125.41667,136.88333c-4.37883,3.40417 -9.16617,6.30667 -14.33333,8.50683v7.62892c5.06683,-1.90992 9.88283,-4.32867 14.33333,-7.28133zM136.24908,89.58333l-4.07425,-3.8055c-1.93858,-1.806 -4.343,-2.88817 -6.85133,-3.23217c-0.44075,-0.06092 -0.88508,-0.11825 -1.32942,-0.129h-0.15767c-1.763,-0.02867 -3.54033,0.30458 -5.21733,1.04275c-0.1505,0.0645 -0.28308,0.15408 -0.43,0.22575c-2.623,1.26492 -4.68342,3.35758 -5.891,5.89817h5.85875c-0.258,8.93325 -1.44767,17.42217 -3.397,25.08333h-3.6765v7.16667h1.59458c-0.49808,1.46558 -1.03917,2.86308 -1.59458,4.24267v15.64125c3.71233,-5.49683 6.81908,-12.24425 9.19483,-19.88392h5.1385v-7.16667h-3.17483c1.79883,-7.71133 2.84875,-16.168 3.07808,-25.08333z" fill="#90caf9"></path><g><path d="M149.9625,168.41667c-0.21858,0 -0.43717,-0.03942 -0.645,-0.12183c-0.4515,-0.172 -0.80983,-0.51958 -1.00333,-0.96033l-10.45617,-24.17317l-13.01108,12.22633c-0.52317,0.49092 -1.28283,0.61992 -1.93858,0.34042c-0.64858,-0.28308 -1.075,-0.93167 -1.075,-1.64475v-59.125c0,-0.71308 0.42283,-1.35808 1.07858,-1.64475c0.65217,-0.28667 1.41542,-0.15408 1.93858,0.33325l43,40.13333c0.516,0.48375 0.70233,1.22908 0.473,1.89558c-0.23292,0.67008 -0.83492,1.1395 -1.54083,1.20042l-18.24992,1.57308l10.9435,23.84708c0.19708,0.43358 0.21858,0.92808 0.05017,1.376c-0.16842,0.44792 -0.50167,0.80983 -0.93525,1.00692l-7.88333,3.58333c-0.24008,0.10033 -0.49092,0.15408 -0.74533,0.15408z" fill="#fafafa"></path><path d="M170.29433,131.16433l-43,-40.13692c-1.5695,-1.462 -3.85208,-1.85617 -5.81217,-0.99617c-1.96367,0.85283 -3.23217,2.78783 -3.23217,4.92708v59.125c0,2.14642 1.27208,4.08142 3.25008,4.93783c1.96367,0.84567 4.24267,0.44433 5.805,-1.02125l8.26317,-7.76508l8.67883,19.6295c0.59125,1.34017 1.90633,2.13567 3.27875,2.13567c0.387,0 0.77042,-0.11467 1.15383,-0.24367c0.09675,-0.03225 13.62025,-6.00925 13.7385,-6.07733c0.69517,-0.4085 1.27208,-0.99258 1.56592,-1.75225c0.344,-0.88867 0.31892,-1.87408 -0.0645,-2.74483l-8.71825,-19.71192l11.89308,-1.02483c2.11058,-0.18275 3.92375,-1.59817 4.61533,-3.59767c0.688,-2.00308 0.13617,-4.2355 -1.41542,-5.68317zM144.5875,135.192l11.32692,25.6065l-6.5575,2.89533l-11.32692,-25.6065l-12.61333,11.85367v-50.86183l37.0445,34.572z" fill="#455a64"></path></g></g></g></svg>